<svg width="22" height="21" viewBox="0 0 22 21" fill="none" xmlns="http://www.w3.org/2000/svg">
<path fill-rule="evenodd" clip-rule="evenodd" d="M9.29791 7.26079H9.36625C10.9222 7.26078 12.1362 7.26078 13.1019 7.37052C14.0874 7.48252 14.8742 7.71397 15.5502 8.21729C15.6974 8.3269 15.8381 8.44478 15.9717 8.57036C16.5848 9.14701 16.9451 9.87641 17.2188 10.8193C17.487 11.7432 17.6866 12.9274 17.9424 14.4452L18.535 17.9612C18.6258 18.5002 18.7033 18.9596 18.7123 19.3296C18.7219 19.723 18.6586 20.1117 18.3779 20.4394C18.0972 20.7671 17.7199 20.8927 17.3259 20.948C16.9553 21.0001 16.4844 21 15.9318 21H2.73241C2.17981 21 1.70883 21.0001 1.33825 20.948C0.944277 20.8927 0.566971 20.7671 0.286246 20.4394C0.00552165 20.1117 -0.0577707 19.723 -0.0481598 19.3296C-0.0391197 18.9596 0.0383328 18.5002 0.129208 17.9612L0.721793 14.4451C0.97759 12.9274 1.17716 11.7432 1.44539 10.8193C1.71911 9.87641 2.07933 9.14701 2.69252 8.57036C2.82605 8.44478 2.96676 8.3269 3.11397 8.21729C3.78998 7.71397 4.57676 7.48252 5.56226 7.37052C6.52796 7.26078 7.74193 7.26078 9.29791 7.26079ZM5.68428 8.42047C4.79937 8.52104 4.22273 8.7147 3.75681 9.0616C3.64231 9.14685 3.53286 9.23853 3.42901 9.3362C3.00638 9.73365 2.71841 10.2643 2.47263 11.1109C2.2233 11.9698 2.03299 13.094 1.77037 14.6522L1.18975 18.0972C1.09079 18.6844 1.02725 19.0691 1.02026 19.3551C1.01363 19.6264 1.06228 19.7102 1.10171 19.7563C1.14114 19.8023 1.21673 19.8635 1.48844 19.9017C1.77493 19.9419 2.16908 19.9431 2.77104 19.9431H15.8931C16.4951 19.9431 16.8892 19.9419 17.1757 19.9017C17.4474 19.8635 17.523 19.8023 17.5625 19.7563C17.6019 19.7102 17.6505 19.6264 17.6439 19.3551C17.6369 19.0691 17.5734 18.6844 17.4744 18.0972L16.8938 14.6522C16.6312 13.094 16.4409 11.9698 16.1915 11.1109C15.9458 10.2643 15.6578 9.73365 15.2352 9.3362C15.1313 9.23853 15.0219 9.14685 14.9074 9.0616C14.4414 8.7147 13.8648 8.52104 12.9799 8.42047C12.0822 8.31846 10.9295 8.31765 9.33208 8.31765C7.73464 8.31765 6.58192 8.31846 5.68428 8.42047Z" fill="#383838"/>
<path fill-rule="evenodd" clip-rule="evenodd" d="M5.5915 10.9598C5.29637 10.9598 5.05713 10.7232 5.05713 10.4314L5.05713 6.73234C5.05713 4.39759 6.97108 2.50489 9.33206 2.50489C11.693 2.50489 13.607 4.39759 13.607 6.73234L13.607 10.4314C13.607 10.7232 13.3678 10.9598 13.0726 10.9598C12.7775 10.9598 12.5383 10.7232 12.5383 10.4314L12.5383 6.73234C12.5383 4.98127 11.1028 3.56175 9.33206 3.56175C7.56133 3.56175 6.12586 4.98127 6.12586 6.73234L6.12586 10.4314C6.12586 10.7232 5.88662 10.9598 5.5915 10.9598Z" fill="#383838"/>
</svg>
