<svg width="12" height="12" viewBox="0 0 12 12" fill="none" xmlns="http://www.w3.org/2000/svg">
<g clip-path="url(#clip0_480_1473)">
<path d="M0.744219 11.4998C0.613973 11.3692 0.539877 11.1929 0.537724 11.0085C0.535571 10.8241 0.605533 10.6461 0.732696 10.5126L10.2428 0.51229C10.3054 0.439678 10.382 0.380537 10.4681 0.338456C10.5542 0.296375 10.648 0.272234 10.7437 0.267496C10.8394 0.262759 10.9351 0.277525 11.025 0.310898C11.1148 0.344272 11.1969 0.395555 11.2664 0.461636C11.3358 0.527717 11.391 0.607216 11.4288 0.695307C11.4665 0.783397 11.486 0.878242 11.486 0.974081C11.486 1.06992 11.4665 1.16476 11.4287 1.25283C11.3909 1.3409 11.3356 1.42038 11.2661 1.48643L1.75369 11.4875C1.62459 11.6224 1.44738 11.7007 1.26071 11.7055C1.07405 11.7102 0.89308 11.641 0.757279 11.5128L0.744219 11.4998Z" fill="black"/>
<path d="M10.255 11.4997L10.242 11.4867L0.733389 1.48643C0.663943 1.42038 0.608644 1.3409 0.570851 1.25283C0.533058 1.16476 0.513559 1.06992 0.513537 0.974082C0.513515 0.878242 0.532971 0.783397 0.570724 0.695307C0.608477 0.607216 0.663739 0.527717 0.733155 0.461636C0.802571 0.395555 0.884693 0.344272 0.974535 0.310898C1.06438 0.277525 1.16006 0.262759 1.25579 0.267496C1.35151 0.272234 1.44527 0.296375 1.53138 0.338456C1.61748 0.380537 1.69414 0.439678 1.75669 0.51229L11.2691 10.5133C11.3883 10.6495 11.4508 10.8262 11.4437 11.007C11.4366 11.1878 11.3604 11.359 11.2309 11.4854C11.1013 11.6118 10.9283 11.6837 10.7473 11.6864C10.5664 11.6891 10.3913 11.6223 10.2581 11.4997L10.255 11.4997Z" fill="black"/>
</g>
<defs>
<clipPath id="clip0_480_1473">
<rect width="12" height="12" fill="white"/>
</clipPath>
</defs>
</svg>
