<svg width="20" height="22" viewBox="0 0 20 22" fill="none" xmlns="http://www.w3.org/2000/svg">
<path d="M19.1897 5.60738C19.1692 5.60738 19.1385 5.60738 19.1078 5.60738C13.6948 5.06506 8.29201 4.86046 2.94039 5.40278L0.852979 5.60738C0.423212 5.64831 0.0445912 5.34134 0.00366105 4.91158C-0.0372691 4.48181 0.269689 4.11343 0.689223 4.0725L2.7767 3.8679C8.22041 3.31534 13.7357 3.53018 19.2613 4.0725C19.6808 4.11343 19.9878 4.49204 19.9469 4.91158C19.9162 5.31064 19.5785 5.60738 19.1897 5.60738Z" fill="#383838"/>
<path d="M6.39856 4.57391C6.35763 4.57391 6.3167 4.57396 6.26553 4.56373C5.85623 4.4921 5.56974 4.09299 5.64136 3.68369L5.86645 2.34323C6.03017 1.3609 6.25531 0 8.63949 0H11.3204C13.7148 0 13.94 1.41208 14.0934 2.35347L14.3185 3.68369C14.3902 4.10322 14.1037 4.50234 13.6944 4.56373C13.2748 4.63536 12.8758 4.3488 12.8144 3.9395L12.5892 2.60928C12.446 1.71905 12.4153 1.54512 11.3306 1.54512H8.64973C7.56508 1.54512 7.54457 1.68834 7.39109 2.59904L7.15576 3.92932C7.09436 4.30792 6.76693 4.57391 6.39856 4.57391Z" fill="#383838"/>
<path d="M13.2645 22H6.6952C3.12405 22 2.9808 20.0251 2.86824 18.4289L2.20317 8.1247C2.17247 7.70517 2.49986 7.33681 2.91939 7.30611C3.34916 7.28565 3.70735 7.60287 3.73805 8.0224L4.40312 18.3265C4.51568 19.8818 4.5566 20.4651 6.6952 20.4651H13.2645C15.4134 20.4651 15.4543 19.8818 15.5566 18.3265L16.2217 8.0224C16.2524 7.60287 16.6208 7.28565 17.0403 7.30611C17.4599 7.33681 17.7873 7.69494 17.7566 8.1247L17.0915 18.4289C16.9789 20.0251 16.8357 22 13.2645 22Z" fill="#383838"/>
<path d="M11.6787 16.372H8.27135C7.85181 16.372 7.50391 16.0241 7.50391 15.6046C7.50391 15.1851 7.85181 14.8372 8.27135 14.8372H11.6787C12.0983 14.8372 12.4462 15.1851 12.4462 15.6046C12.4462 16.0241 12.0983 16.372 11.6787 16.372Z" fill="#383838"/>
<path d="M12.5385 12.279H7.42222C7.00269 12.279 6.65479 11.9311 6.65479 11.5116C6.65479 11.092 7.00269 10.7441 7.42222 10.7441H12.5385C12.958 10.7441 13.3059 11.092 13.3059 11.5116C13.3059 11.9311 12.958 12.279 12.5385 12.279Z" fill="#383838"/>
</svg>
