<svg width="12" height="6" viewBox="0 0 12 6" fill="none" xmlns="http://www.w3.org/2000/svg">
<path d="M6 6C5.75089 5.99967 5.50436 5.95012 5.27489 5.85424C5.04543 5.75836 4.83767 5.61811 4.66382 5.44171L0.150589 0.891629C0.0539637 0.792193 0 0.659651 0 0.52176C0 0.38387 0.0539637 0.251327 0.150589 0.151892C0.198532 0.103784 0.255671 0.065581 0.318684 0.0395049C0.381696 0.0134288 0.449324 0 0.517633 0C0.585943 0 0.65357 0.0134288 0.716583 0.0395049C0.779595 0.065581 0.836734 0.103784 0.884677 0.151892L5.39791 4.70197C5.47623 4.78144 5.56986 4.8446 5.67327 4.88773C5.77667 4.93085 5.88777 4.95307 6 4.95307C6.11223 4.95307 6.22333 4.93085 6.32673 4.88773C6.43014 4.8446 6.52377 4.78144 6.60209 4.70197L11.1153 0.151892C11.1633 0.103784 11.2204 0.065581 11.2834 0.0395049C11.3464 0.0134288 11.4141 0 11.4824 0C11.5507 0 11.6183 0.0134288 11.6813 0.0395049C11.7443 0.065581 11.8015 0.103784 11.8494 0.151892C11.946 0.251327 12 0.38387 12 0.52176C12 0.659651 11.946 0.792193 11.8494 0.891629L7.33548 5.44171C7.16171 5.61802 6.95406 5.75823 6.72472 5.8541C6.49539 5.94998 6.24899 5.99958 6 6Z" fill="#383838"/>
</svg>
