<svg width="64" height="64" viewBox="0 0 64 64" fill="none" xmlns="http://www.w3.org/2000/svg">
<g clip-path="url(#clip0_1_216)">
<path d="M0 30.6715V29.4215C0.142857 28.5572 0.135714 27.6715 0.207143 26.8C0.371429 24.75 0.978571 22.8072 1.68571 20.9C3.05 17.2143 4.98571 13.8572 7.58571 10.9143C10.2071 7.95004 13.2143 5.45004 16.7429 3.60004C19.6214 2.09289 22.6214 0.971466 25.8143 0.364323C26.7143 0.192895 27.6357 0.150037 28.5429 0.10718C31.4786 -0.0356769 34.4143 -0.0713912 37.3357 0.271466C40.1214 0.600037 42.7571 1.52147 45.3071 2.67861C48.1214 3.96432 50.7357 5.58575 53.0571 7.63575C55.9 10.1429 58.3286 13 60.15 16.3429C61.7929 19.3572 63.0143 22.5286 63.65 25.9143C63.8143 26.8 63.8571 27.7 63.9 28.5929C64.0429 31.55 64.0857 34.5072 63.7357 37.45C63.4143 40.1715 62.5214 42.7572 61.4 45.25C60.1 48.1286 58.45 50.8 56.3572 53.1643C53.7571 56.0929 50.7929 58.5858 47.3143 60.4215C44.65 61.8286 41.8786 62.9215 38.9286 63.5572C37.6143 63.8429 36.2786 63.8358 34.95 63.9429C34.7857 63.9572 34.6143 63.8929 34.4714 64.0072H33.2214C32.9286 63.9072 32.6357 63.9072 32.35 64.0072H31.6C31.2643 63.9072 30.9357 63.9072 30.6 64.0072H29.35C28.4786 63.8715 27.6 63.8858 26.7286 63.8072C24.6643 63.6286 22.7071 63.0215 20.7786 62.3072C17.1214 60.9429 13.7786 59.0143 10.85 56.4286C7.91429 53.8358 5.42857 50.8643 3.59286 47.3857C2.17857 44.7072 1.07857 41.9143 0.45 38.9358C0.178571 37.6643 0.185714 36.3715 0.0785714 35.0858C0.0642857 34.9429 0.121429 34.7929 0.0142857 34.6643V33.4143C0.114286 33.0786 0.114286 32.75 0.0142857 32.4143V31.6643C0.114286 31.3286 0.114286 31 0.0142857 30.6643L0 30.6715Z" fill="#3B5997"/>
<path d="M0 30.6714C0.207143 31.0071 0.157143 31.3357 0 31.6714V30.6714Z" fill="#5E77AA"/>
<path d="M0 32.4214C0.157143 32.7571 0.207143 33.0857 0 33.4214V32.4214Z" fill="#5E77AA"/>
<path d="M30.5857 64C30.9214 63.8 31.25 63.8429 31.5857 64H30.5857Z" fill="#5E77AA"/>
<path d="M32.3286 64C32.6214 63.85 32.9143 63.8072 33.2 64H32.3286Z" fill="#5E77AA"/>
<path d="M25.6429 43.6857C25.6429 40.4857 25.6286 37.2786 25.6571 34.0786C25.6571 33.4857 25.5643 33.2286 24.8928 33.2786C23.9428 33.35 22.9786 33.2786 22.0214 33.3072C21.6286 33.3214 21.5357 33.1786 21.5357 32.8072C21.55 30.7072 21.55 28.6072 21.5357 26.5072C21.5357 26.0857 21.6428 25.9214 22.0928 25.9357C23.0714 25.9643 24.05 25.9214 25.0214 25.9572C25.5 25.9714 25.6571 25.85 25.65 25.3429C25.6357 23.6143 25.5428 21.8857 25.7143 20.1643C26.05 16.8643 27.4786 14.3072 30.7429 13.0714C31.9429 12.6143 33.2071 12.4929 34.4786 12.4857C36.3929 12.4714 38.3071 12.5143 40.2214 12.5072C40.6714 12.5072 40.7786 12.6643 40.7714 13.0857C40.75 15.0857 40.75 17.0786 40.7714 19.0786C40.7714 19.5572 40.6286 19.6786 40.1643 19.6714C38.8929 19.6429 37.6286 19.65 36.3571 19.6643C34.9 19.6786 34.3143 20.2572 34.2928 21.7072C34.2714 22.9572 34.3071 24.2 34.2786 25.45C34.2714 25.8643 34.4071 25.9714 34.8071 25.9643C36.5714 25.9429 38.3429 25.9786 40.1071 25.9429C40.6286 25.9357 40.7286 26.1072 40.6786 26.5857C40.45 28.6714 40.2357 30.7643 40.0357 32.85C40 33.2357 39.8357 33.3143 39.4786 33.3143C37.9571 33.2929 36.4429 33.3286 34.9214 33.2929C34.4071 33.2786 34.2643 33.4143 34.2643 33.9357C34.2857 40.4286 34.2643 46.9143 34.2928 53.4072C34.2928 54.0214 34.1714 54.2214 33.5214 54.2072C31.1286 54.1643 28.7357 54.1714 26.35 54.2072C25.8 54.2072 25.6071 54.0929 25.6143 53.5C25.6428 50.2357 25.6286 46.9714 25.6286 43.7072L25.6429 43.6857Z" fill="#FEFEFE"/>
</g>
<defs>
<clipPath id="clip0_1_216">
<rect width="64" height="64" fill="white"/>
</clipPath>
</defs>
</svg>
