<svg width="18" height="18" viewBox="0 0 18 18" fill="none" xmlns="http://www.w3.org/2000/svg">
<path d="M4 9.5C4.00049 9.14709 4.07483 8.79784 4.21864 8.47277C4.36245 8.1477 4.57284 7.85336 4.83744 7.60708L11.6626 1.21333C11.8117 1.07645 12.0105 1 12.2174 1C12.4242 1 12.623 1.07645 12.7722 1.21333C12.8443 1.28125 12.9016 1.3622 12.9407 1.45147C12.9799 1.54074 13 1.63654 13 1.73331C13 1.83009 12.9799 1.92589 12.9407 2.01516C12.9016 2.10443 12.8443 2.18537 12.7722 2.25329L5.94704 8.64703C5.82784 8.75799 5.7331 8.89063 5.66841 9.03713C5.60372 9.18362 5.57039 9.34101 5.57039 9.5C5.57039 9.65899 5.60372 9.81638 5.66841 9.96287C5.7331 10.1094 5.82784 10.242 5.94704 10.353L12.7722 16.7467C12.8443 16.8146 12.9016 16.8956 12.9407 16.9848C12.9799 17.0741 13 17.1699 13 17.2667C13 17.3635 12.9799 17.4593 12.9407 17.5485C12.9016 17.6378 12.8443 17.7187 12.7722 17.7867C12.623 17.9236 12.4242 18 12.2174 18C12.0105 18 11.8117 17.9236 11.6626 17.7867L4.83744 11.3919C4.57297 11.1458 4.36265 10.8516 4.21884 10.5267C4.07504 10.2018 4.00063 9.85274 4 9.5Z" fill="#383838"/>
</svg>
