<svg width="22" height="22" viewBox="0 0 22 22" fill="none" xmlns="http://www.w3.org/2000/svg">
<path d="M21.1538 6.69231H0.846154C0.38359 6.69231 0 6.30872 0 5.84615C0 5.38359 0.38359 5 0.846154 5H21.1538C21.6164 5 22 5.38359 22 5.84615C22 6.30872 21.6164 6.69231 21.1538 6.69231Z" fill="#383838"/>
<path d="M21.1538 12.3333H0.846154C0.38359 12.3333 0 11.9497 0 11.4872C0 11.0246 0.38359 10.641 0.846154 10.641H21.1538C21.6164 10.641 22 11.0246 22 11.4872C22 11.9497 21.6164 12.3333 21.1538 12.3333Z" fill="#383838"/>
<path d="M21.1538 17.9744H0.846154C0.38359 17.9744 0 17.5908 0 17.1282C0 16.6656 0.38359 16.2821 0.846154 16.2821H21.1538C21.6164 16.2821 22 16.6656 22 17.1282C22 17.5908 21.6164 17.9744 21.1538 17.9744Z" fill="#383838"/>
</svg>
