<svg width="121" height="24" viewBox="0 0 121 24" fill="none" xmlns="http://www.w3.org/2000/svg">
<path fill-rule="evenodd" clip-rule="evenodd" d="M0 23.9704H3.31049V13.0963H7.62324V10.1926H3.31049V2.9037H8.16993V0H0V23.9704Z" fill="#E65100"/>
<path fill-rule="evenodd" clip-rule="evenodd" d="M18.1621 0H16.5828H15.0035C12.3916 0 11.0552 1.36296 11.0552 4.11852V19.9111C11.0552 22.637 12.3916 24 15.0339 24H16.5828H18.1318C20.7741 24 22.1104 22.637 22.1104 19.9111V4.11852C22.0801 1.36296 20.7741 0 18.1621 0ZM18.8 19.6741C18.8 20.6222 18.3748 21.0667 17.494 21.0667H16.5828H15.8235C14.8517 21.0667 14.3657 20.5926 14.3657 19.6741V4.2963C14.3657 3.34815 14.8517 2.9037 15.7932 2.9037H16.5828H17.3421C18.314 2.9037 18.8 3.37778 18.8 4.2963V19.6741Z" fill="#E65100"/>
<path fill-rule="evenodd" clip-rule="evenodd" d="M32.7708 0H31.1915H29.6122C27.0003 0 25.6639 1.36296 25.6639 4.11852V19.9111C25.6639 22.637 27.0003 24 29.6426 24H31.1915H32.7405C35.3828 24 36.7191 22.637 36.7191 19.9111V4.11852C36.7191 1.36296 35.3828 0 32.7708 0ZM33.439 19.6741C33.439 20.6222 33.0138 21.0667 32.133 21.0667H31.2219H30.4626C29.4907 21.0667 29.0048 20.5926 29.0048 19.6741V4.2963C29.0048 3.34815 29.4907 2.9037 30.4322 2.9037H31.2219H31.9812C32.9531 2.9037 33.439 3.37778 33.439 4.2963V19.6741Z" fill="#E65100"/>
<path fill-rule="evenodd" clip-rule="evenodd" d="M46.195 0H45.6483H40.4852V23.9704H45.6483H46.8936C49.5055 23.9704 50.8419 22.8148 50.8419 20.5037V4.59259C50.8115 1.54074 49.2626 0 46.195 0ZM47.5314 20C47.5314 20.7111 47.1062 21.0667 46.2254 21.0667H45.6483H43.7653V2.9037H45.6483H46.0735C47.0454 2.9037 47.5314 3.4963 47.5314 4.65185V20Z" fill="#E65100"/>
<path fill-rule="evenodd" clip-rule="evenodd" d="M53.3931 2.9037H56.5213V23.9704H59.8015V2.9037H62.9601V0H53.3931V2.9037Z" fill="#E65100"/>
<path fill-rule="evenodd" clip-rule="evenodd" d="M71.9197 0H70.6744H69.4292C66.8173 0 65.4809 1.36296 65.4809 4.11852V24H68.761V15.2296H70.6441H72.5271V24H75.8072V4.11852C75.868 1.36296 74.562 0 71.9197 0ZM72.5879 12.2963H70.7048H68.8218V4.2963C68.8218 3.34815 69.3077 2.9037 70.2492 2.9037H70.7048H71.1604C72.1323 2.9037 72.5879 3.37778 72.5879 4.2963V12.2963Z" fill="#E65100"/>
<path fill-rule="evenodd" clip-rule="evenodd" d="M85.2831 0H83.2179C80.6059 0 79.2696 1.36296 79.2696 4.11852V9.03704C79.2696 9.65926 79.3303 10.163 79.4822 10.5481C79.634 10.9333 79.8466 11.2593 80.1503 11.4963C80.4541 11.7333 80.94 12.0296 81.6385 12.3852L84.7668 14.0741C85.192 14.3111 85.4654 14.5185 85.6476 14.6667C85.8298 14.8148 85.9209 15.1111 85.9209 15.5556V19.6444C85.9209 20.5926 85.4957 21.037 84.615 21.037H84.0379C83.066 21.037 82.5801 20.563 82.5801 19.6444V18.3407H79.2999V19.5556C79.2999 22.4889 80.6059 23.9704 83.2482 23.9704H85.2831C87.9254 23.9704 89.2618 22.637 89.2618 19.9407V14.8444C89.2618 13.9852 89.1707 13.4222 89.0188 13.1259C88.867 12.8296 88.624 12.563 88.3507 12.3556C88.0773 12.1481 87.5914 11.8519 86.8928 11.4667L83.7646 9.83704C83.3394 9.6 83.066 9.39259 82.8838 9.24444C82.7016 9.0963 82.6104 8.8 82.6104 8.35555V4.32593C82.6104 3.37778 83.066 2.9037 84.0075 2.9037H84.5238C85.4957 2.9037 85.9513 3.37778 85.9513 4.32593V6.42963H89.2314V4.08889C89.2314 1.36296 87.8951 0 85.2831 0Z" fill="#E65100"/>
<path fill-rule="evenodd" clip-rule="evenodd" d="M91.6004 2.9037H94.759V23.9704H98.0392V2.9037H101.198V0H91.6004V2.9037Z" fill="#E65100"/>
<path d="M107.211 0H103.931V23.9704H107.211V0Z" fill="#E65100"/>
<path fill-rule="evenodd" clip-rule="evenodd" d="M121 6.78519V4.08889C121 1.36296 119.694 0 117.052 0H114.926C112.314 0 110.977 1.36296 110.977 4.08889V19.9111C110.977 22.637 112.283 24 114.926 24H117.052C119.664 24 121 22.637 121 19.9111V18.3704H117.72V19.6741C117.72 20.6222 117.295 21.0667 116.414 21.0667H115.594C114.713 21.0667 114.288 20.5926 114.288 19.6741V4.2963C114.288 3.34815 114.713 2.9037 115.594 2.9037H116.232C117.204 2.9037 117.69 3.37778 117.69 4.2963V6.75556H121V6.78519Z" fill="#E65100"/>
</svg>
