<svg width="22" height="22" viewBox="0 0 22 22" fill="none" xmlns="http://www.w3.org/2000/svg">
<path fill-rule="evenodd" clip-rule="evenodd" d="M8.96296 1.62963C4.91287 1.62963 1.62963 4.91287 1.62963 8.96296C1.62963 13.0131 4.91287 16.2963 8.96296 16.2963C13.0131 16.2963 16.2963 13.0131 16.2963 8.96296C16.2963 4.91287 13.0131 1.62963 8.96296 1.62963ZM0 8.96296C0 4.01285 4.01285 0 8.96296 0C13.9131 0 17.9259 4.01285 17.9259 8.96296C17.9259 13.9131 13.9131 17.9259 8.96296 17.9259C4.01285 17.9259 0 13.9131 0 8.96296Z" fill="#383838"/>
<path fill-rule="evenodd" clip-rule="evenodd" d="M7.09209 4.44622C7.68524 4.20053 8.32097 4.07407 8.96299 4.07407C9.413 4.07407 9.7778 4.43888 9.7778 4.88889C9.7778 5.3389 9.413 5.7037 8.96299 5.7037C8.53497 5.7037 8.11115 5.78801 7.71572 5.9518C7.32029 6.11559 6.96099 6.35567 6.65834 6.65832C6.35569 6.96097 6.11562 7.32027 5.95182 7.7157C5.78803 8.11113 5.70373 8.53495 5.70373 8.96296C5.70373 9.41297 5.33892 9.77778 4.88891 9.77778C4.4389 9.77778 4.0741 9.41297 4.0741 8.96296C4.0741 8.32094 4.20055 7.68521 4.44624 7.09207C4.69193 6.49892 5.05204 5.95997 5.50602 5.506C5.95999 5.05202 6.49894 4.69191 7.09209 4.44622Z" fill="#383838"/>
<path fill-rule="evenodd" clip-rule="evenodd" d="M14.395 14.3951C14.7133 14.0769 15.2292 14.0769 15.5474 14.3951L21.7613 20.609C22.0795 20.9272 22.0795 21.4431 21.7613 21.7613C21.4431 22.0796 20.9272 22.0796 20.609 21.7613L14.395 15.5474C14.0768 15.2292 14.0768 14.7133 14.395 14.3951Z" fill="#383838"/>
</svg>
