<svg width="52" height="52" viewBox="0 0 52 52" fill="none" xmlns="http://www.w3.org/2000/svg">
<path d="M26 52C40.3594 52 52 40.3594 52 26C52 11.6406 40.3594 0 26 0C11.6406 0 0 11.6406 0 26C0 40.3594 11.6406 52 26 52Z" fill="#66B45C"/>
<path d="M23.3573 33.085C23.1741 33.0849 22.9927 33.0488 22.8236 32.9786C22.6544 32.9084 22.5007 32.8056 22.3713 32.676L17.1053 27.409C16.9756 27.2794 16.8728 27.1256 16.8026 26.9563C16.7325 26.7871 16.6963 26.6056 16.6963 26.4223C16.6962 26.2391 16.7323 26.0576 16.8024 25.8883C16.8725 25.719 16.9752 25.5651 17.1048 25.4355C17.2343 25.3059 17.3881 25.203 17.5574 25.1329C17.7267 25.0627 17.9082 25.0266 18.0914 25.0265C18.2747 25.0265 18.4561 25.0625 18.6255 25.1326C18.7948 25.2027 18.9486 25.3054 19.0783 25.435L23.3583 29.715L32.9223 20.152C33.1839 19.89 33.5389 19.7426 33.9092 19.7423C34.2795 19.742 34.6347 19.8889 34.8968 20.1505C35.1588 20.4121 35.3062 20.7671 35.3064 21.1374C35.3067 21.5077 35.1599 21.863 34.8983 22.125L24.3443 32.675C24.2148 32.8049 24.061 32.908 23.8916 32.9783C23.7222 33.0487 23.5407 33.0849 23.3573 33.085Z" fill="white"/>
</svg>
