<svg width="64" height="64" viewBox="0 0 64 64" fill="none" xmlns="http://www.w3.org/2000/svg">
<g clip-path="url(#clip0_1_206)">
<path d="M34.4525 64.0001H33.3295C33.0792 63.9015 32.8305 63.9015 32.5803 64.0001H30.7081C30.5829 63.9093 30.4578 63.9093 30.3342 64.0001H29.3363C28.4636 63.8108 27.5705 63.864 26.6883 63.7795C24.1623 63.5355 21.7974 62.7348 19.4747 61.7791C17.9137 61.1363 16.4184 60.3621 14.9904 59.4612C14.5696 59.1969 14.1614 59.1422 13.6859 59.2767C12.3846 59.6474 11.1098 60.0994 9.82101 60.506C7.57965 61.2145 5.34454 61.9418 3.10475 62.6503C2.90611 62.7129 2.70903 62.7895 2.501 62.8067C2.10528 62.8411 1.90977 62.6472 1.94418 62.2546C1.96764 61.984 2.074 61.7306 2.15846 61.4741C3.17513 58.3273 4.27626 55.2071 5.35393 52.0822C5.66831 51.1719 5.551 50.4947 5.02234 49.7127C2.73562 46.3312 1.20749 42.6198 0.386334 38.619C0.134513 37.3913 0.181436 36.1385 0.0641283 34.8982C0.0563077 34.8153 0.0625642 34.7324 0 34.6667V34.0427C0.106359 33.9301 0.045359 33.7909 0.0625642 33.6626C0.0625642 33.5828 0.0625642 33.5031 0.0625642 33.4233C0.045359 33.2966 0.106359 33.1559 0 33.0433V31.67C0.131385 31.4292 0.0312821 31.1696 0.0625642 30.9224C0.0312821 30.6738 0.131385 30.4141 0 30.1733V29.4241C0.139205 28.5467 0.154846 27.6583 0.218975 26.7731C0.366 24.7492 0.976001 22.838 1.66264 20.958C3.04531 17.1684 5.0677 13.7369 7.76108 10.7308C10.2887 7.90777 13.1791 5.51481 16.5341 3.71305C19.4684 2.13651 22.5591 1.00103 25.8296 0.359776C26.7165 0.186169 27.6174 0.162709 28.5121 0.115788C31.4604 -0.042179 34.4165 -0.0687675 37.3492 0.273755C40.1146 0.595944 42.7345 1.51403 45.2636 2.66046C48.1603 3.97424 50.8303 5.66183 53.2014 7.78421C56.0731 10.3539 58.5037 13.2912 60.3337 16.7039C61.8885 19.6036 62.9896 22.6612 63.6371 25.8863C63.8186 26.7918 63.8452 27.7115 63.8921 28.6249C64.0438 31.5762 64.0751 34.5353 63.7247 37.471C63.4072 40.1299 62.5438 42.6589 61.463 45.1019C59.5658 49.3889 56.8286 53.08 53.3359 56.1893C49.5962 59.5191 45.2808 61.8198 40.4555 63.1852C38.6412 63.6982 36.7955 63.8358 34.9358 63.9422C34.7747 63.9516 34.6027 63.889 34.4541 64.0032L34.4525 64.0001Z" fill="#4CAE50"/>
<path d="M0 30.1716C0.208026 30.3922 0.0938462 30.6612 0.109487 30.9099C0.0813334 31.0037 0.045359 31.0068 0 30.9208V30.1716Z" fill="#81C684"/>
<path d="M0 30.9209C0.0359744 30.9162 0.0735129 30.913 0.109487 30.9099C0.129821 31.1711 0.147026 31.4323 0 31.67V30.9209Z" fill="#6ABC6D"/>
<path d="M32.5803 64C32.8305 63.8546 33.0792 63.8202 33.3295 64H32.5803Z" fill="#72C076"/>
<path d="M0 33.0416C0.123564 33.1433 0.120436 33.2809 0.107923 33.4201C0.0688206 33.5093 0.0328462 33.5061 0 33.4154V33.0416Z" fill="#90CD92"/>
<path d="M0.103231 33.6704C0.107923 33.8049 0.173616 33.9566 0 34.0395V33.6657C0.0391026 33.5781 0.0735129 33.5797 0.103231 33.6704Z" fill="#B4DDB6"/>
<path d="M30.3342 63.9999C30.4594 63.8357 30.5845 63.8639 30.708 63.9999H30.3342Z" fill="#95CF97"/>
<path d="M0.103231 33.6703C0.0688206 33.6703 0.0344103 33.6703 0 33.6657V33.4154C0.0359744 33.4185 0.0719488 33.4201 0.107923 33.4201C0.106359 33.503 0.104795 33.5859 0.103231 33.6703Z" fill="#A3D5A5"/>
<path d="M42.42 49.9285C40.7965 49.9191 39.2527 49.4999 37.723 49.0245C33.2387 47.6278 29.0626 45.654 25.4605 42.5682C22.2149 39.7889 19.4778 36.5717 17.0424 33.0745C15.4111 30.7316 14.0315 28.2683 13.5795 25.4202C12.9633 21.5398 13.9518 18.1287 17.0597 15.5809C18.458 14.4345 20.2019 14.5502 21.8927 14.9099C22.3385 15.0053 22.5559 15.3823 22.7373 15.767C23.8181 18.0599 24.6299 20.47 25.731 22.7488C26.4005 24.1346 26.1408 25.2028 25.1555 26.2476C24.5564 26.8825 23.9902 27.5488 23.4193 28.2088C22.925 28.7797 22.8812 29.3803 23.2801 30.0403C26.2378 34.9263 30.184 38.691 35.5302 40.8712C36.9926 41.4671 37.6761 41.2982 38.6631 40.0391C39.2777 39.254 39.8659 38.447 40.454 37.6415C41.3189 36.4606 42.0149 36.2558 43.3444 36.836C45.725 37.8745 48.0258 39.0804 50.3657 40.2018C50.9898 40.5005 51.2369 40.9557 51.2119 41.6423C51.0648 45.8041 49.5258 47.9343 45.0524 49.5093C44.566 49.6798 44.0483 49.7721 43.5368 49.8565C43.1692 49.9175 42.7907 49.9066 42.4185 49.9285H42.42Z" fill="#F9F9F9"/>
</g>
<defs>
<clipPath id="clip0_1_206">
<rect width="64" height="64" fill="white"/>
</clipPath>
</defs>
</svg>
