<svg width="36" height="22" viewBox="0 0 36 22" fill="none" xmlns="http://www.w3.org/2000/svg">
<path d="M18.6838 2.52V2.724H20.2318V3.516H18.6238C18.5518 4.068 18.3918 4.5 18.1438 4.812C17.9038 5.124 17.5518 5.348 17.0878 5.484C16.6318 5.62 16.0238 5.688 15.2638 5.688V6.636C15.2638 7.716 15.7358 8.256 16.6798 8.256C17.6078 8.256 18.0718 7.736 18.0718 6.696H19.0798C19.0718 7.496 18.8598 8.1 18.4438 8.508C18.0278 8.916 17.4358 9.12 16.6678 9.12C15.8758 9.12 15.2718 8.9 14.8558 8.46C14.4478 8.02 14.2438 7.404 14.2438 6.612V4.92C15.1558 4.92 15.8278 4.892 16.2598 4.836C16.6998 4.772 17.0198 4.644 17.2198 4.452C17.4198 4.252 17.5478 3.94 17.6038 3.516H13.7038V2.724H17.6518V2.508V1.428H13.7038V0.624H20.2318V1.428H18.6838V2.52ZM0.704047 13.32V12.324H2.96005V21H1.85605V13.32H0.704047ZM4.8358 16.572C4.8358 15.196 5.0598 14.124 5.5078 13.356C5.9558 12.58 6.7398 12.192 7.8598 12.192C8.9718 12.192 9.7518 12.58 10.1998 13.356C10.6478 14.124 10.8718 15.196 10.8718 16.572C10.8718 17.972 10.6478 19.06 10.1998 19.836C9.7518 20.612 8.9718 21 7.8598 21C6.7398 21 5.9558 20.612 5.5078 19.836C5.0598 19.06 4.8358 17.972 4.8358 16.572ZM9.7918 16.572C9.7918 15.876 9.7438 15.288 9.6478 14.808C9.5598 14.32 9.3718 13.928 9.0838 13.632C8.8038 13.336 8.3958 13.188 7.8598 13.188C7.3158 13.188 6.8998 13.336 6.6118 13.632C6.3318 13.928 6.1438 14.32 6.0478 14.808C5.9598 15.288 5.9158 15.876 5.9158 16.572C5.9158 17.292 5.9598 17.896 6.0478 18.384C6.1438 18.872 6.3318 19.264 6.6118 19.56C6.8998 19.856 7.3158 20.004 7.8598 20.004C8.3958 20.004 8.8038 19.856 9.0838 19.56C9.3718 19.264 9.5598 18.872 9.6478 18.384C9.7438 17.896 9.7918 17.292 9.7918 16.572ZM12.371 16.572C12.371 15.196 12.595 14.124 13.043 13.356C13.491 12.58 14.275 12.192 15.395 12.192C16.507 12.192 17.287 12.58 17.735 13.356C18.183 14.124 18.407 15.196 18.407 16.572C18.407 17.972 18.183 19.06 17.735 19.836C17.287 20.612 16.507 21 15.395 21C14.275 21 13.491 20.612 13.043 19.836C12.595 19.06 12.371 17.972 12.371 16.572ZM17.327 16.572C17.327 15.876 17.279 15.288 17.183 14.808C17.095 14.32 16.907 13.928 16.619 13.632C16.339 13.336 15.931 13.188 15.395 13.188C14.851 13.188 14.435 13.336 14.147 13.632C13.867 13.928 13.679 14.32 13.583 14.808C13.495 15.288 13.451 15.876 13.451 16.572C13.451 17.292 13.495 17.896 13.583 18.384C13.679 18.872 13.867 19.264 14.147 19.56C14.435 19.856 14.851 20.004 15.395 20.004C15.931 20.004 16.339 19.856 16.619 19.56C16.907 19.264 17.095 18.872 17.183 18.384C17.279 17.896 17.327 17.292 17.327 16.572ZM20.4341 21.072C20.2261 21.072 20.0501 21 19.9061 20.856C19.7621 20.712 19.6901 20.536 19.6901 20.328C19.6901 20.12 19.7621 19.944 19.9061 19.8C20.0501 19.656 20.2261 19.584 20.4341 19.584C20.6341 19.584 20.8021 19.656 20.9381 19.8C21.0821 19.944 21.1541 20.12 21.1541 20.328C21.1541 20.536 21.0821 20.712 20.9381 20.856C20.8021 21 20.6341 21.072 20.4341 21.072ZM22.4256 16.572C22.4256 15.196 22.6496 14.124 23.0976 13.356C23.5456 12.58 24.3296 12.192 25.4496 12.192C26.5616 12.192 27.3416 12.58 27.7896 13.356C28.2376 14.124 28.4616 15.196 28.4616 16.572C28.4616 17.972 28.2376 19.06 27.7896 19.836C27.3416 20.612 26.5616 21 25.4496 21C24.3296 21 23.5456 20.612 23.0976 19.836C22.6496 19.06 22.4256 17.972 22.4256 16.572ZM27.3816 16.572C27.3816 15.876 27.3336 15.288 27.2376 14.808C27.1496 14.32 26.9616 13.928 26.6736 13.632C26.3936 13.336 25.9856 13.188 25.4496 13.188C24.9056 13.188 24.4896 13.336 24.2016 13.632C23.9216 13.928 23.7336 14.32 23.6376 14.808C23.5496 15.288 23.5056 15.876 23.5056 16.572C23.5056 17.292 23.5496 17.896 23.6376 18.384C23.7336 18.872 23.9216 19.264 24.2016 19.56C24.4896 19.856 24.9056 20.004 25.4496 20.004C25.9856 20.004 26.3936 19.856 26.6736 19.56C26.9616 19.264 27.1496 18.872 27.2376 18.384C27.3336 17.896 27.3816 17.292 27.3816 16.572ZM29.9608 16.572C29.9608 15.196 30.1848 14.124 30.6328 13.356C31.0808 12.58 31.8648 12.192 32.9848 12.192C34.0968 12.192 34.8768 12.58 35.3248 13.356C35.7728 14.124 35.9968 15.196 35.9968 16.572C35.9968 17.972 35.7728 19.06 35.3248 19.836C34.8768 20.612 34.0968 21 32.9848 21C31.8648 21 31.0808 20.612 30.6328 19.836C30.1848 19.06 29.9608 17.972 29.9608 16.572ZM34.9168 16.572C34.9168 15.876 34.8688 15.288 34.7728 14.808C34.6848 14.32 34.4968 13.928 34.2088 13.632C33.9288 13.336 33.5208 13.188 32.9848 13.188C32.4408 13.188 32.0248 13.336 31.7368 13.632C31.4568 13.928 31.2688 14.32 31.1728 14.808C31.0848 15.288 31.0408 15.876 31.0408 16.572C31.0408 17.292 31.0848 17.896 31.1728 18.384C31.2688 18.872 31.4568 19.264 31.7368 19.56C32.0248 19.856 32.4408 20.004 32.9848 20.004C33.5208 20.004 33.9288 19.856 34.2088 19.56C34.4968 19.264 34.6848 18.872 34.7728 18.384C34.8688 17.896 34.9168 17.292 34.9168 16.572Z" fill="#383838"/>
</svg>
